<svg id="Layer_1" data-name="Layer 1" xmlns="http://www.w3.org/2000/svg" viewBox="0 0 521.71 170.66"><defs><style>.cls-1{fill:#fff;}</style></defs><title>applestore</title><rect width="521.71" height="170.66" rx="23.06" ry="23.06"/><path class="cls-1" d="M136,112.8a84.49,84.49,0,0,1-7.64,14.26c-5,7.55-12,17-20.62,17-7.7.07-9.68-5-20.13-5s-12.63,5-20.33,5C58.66,144,52,135.55,47.08,128,33.2,106.88,31.75,82.09,40.31,68.91,46.39,59.55,56,54.07,65,54.07c9.18,0,15,5,22.55,5,7.37,0,11.86-5,22.47-5,8,0,16.53,4.37,22.59,11.93C112.76,76.87,116,105.22,136,112.8Z"/><path class="cls-1" d="M102,45.62c3.86-5,6.79-11.95,5.72-19.09C101.39,27,94,31,89.72,36.2,85.81,40.95,82.59,48,83.84,54.82,90.72,55,97.84,50.93,102,45.62Z"/><path class="cls-1" d="M178.32,68.59l-19.87,58.5h9.1l5.93-18h19.24l6.1,18h9.35l-20-58.5ZM183,78.21c.67,2.61,1.4,5.32,2.33,8.25L190.71,102H175.47l5.28-15.61C181.56,83.84,182.32,81.1,183,78.21Z"/><path class="cls-1" d="M233.89,83.76c-6,0-10.86,2.33-14.07,6.75l-.35-5.82h-8.1l0,.74c.24,3.63.34,7.62.34,13.34v45.09h8.85v-21a15.54,15.54,0,0,0,12.1,5.2,18.25,18.25,0,0,0,13.41-5.7c3.88-4.1,5.92-10,5.92-17,0-6.22-1.78-11.6-5.14-15.55A16.84,16.84,0,0,0,233.89,83.76Zm-2.21,7.33c7.89,0,11.42,7.31,11.42,14.55,0,9.34-4.51,15.15-11.76,15.15a10.73,10.73,0,0,1-10.43-8.21,11.29,11.29,0,0,1-.31-2.87v-7.12a13.35,13.35,0,0,1,.28-2.18c0-.24.09-.48.13-.72A11.21,11.21,0,0,1,231.69,91.09Z"/><path class="cls-1" d="M279.47,83.76c-6,0-10.86,2.33-14.07,6.75L265,84.69H257l0,.74c.24,3.63.34,7.62.34,13.34v45.09h8.85v-21a15.54,15.54,0,0,0,12.1,5.2,18.27,18.27,0,0,0,13.42-5.7c3.87-4.1,5.92-10,5.92-17,0-6.22-1.78-11.6-5.15-15.55A16.83,16.83,0,0,0,279.47,83.76Zm-2.2,7.33c7.89,0,11.42,7.31,11.42,14.55,0,9.34-4.51,15.15-11.76,15.15a10.73,10.73,0,0,1-10.43-8.21,11.3,11.3,0,0,1-.31-2.87v-7.12a13.09,13.09,0,0,1,.28-2.19c0-.24.09-.48.13-.71A11.2,11.2,0,0,1,277.27,91.09Z"/><path class="cls-1" d="M336.58,93.38c-8.26-3.2-10.91-5.71-10.91-10.36,0-3.91,3.11-7.86,10.06-7.86a20.12,20.12,0,0,1,10.39,2.61l.75.46,2.5-7.39-.49-.29c-1.48-.87-5.71-2.89-12.89-2.89-11.29,0-19.17,6.66-19.17,16.2,0,7.69,4.94,13.07,15.54,16.92,7.51,2.81,10.31,5.68,10.31,10.61,0,5.58-4.31,9-11.25,9a24.22,24.22,0,0,1-12.76-3.62l-.77-.49-2.38,7.56.44.29c3.34,2.23,9.63,3.85,15,3.85,15.21,0,20.61-9.28,20.61-17.22C351.51,102.62,347.18,97.57,336.58,93.38Z"/><path class="cls-1" d="M367.44,74.61l-8.68,2.73v7.35H352.4v7.07h6.36v21.67c0,5.24,1,8.91,3.06,11.23a11.35,11.35,0,0,0,8.56,3.36,20.84,20.84,0,0,0,6.84-1.06l.5-.18-.42-7.09-.85.26a13.34,13.34,0,0,1-4.12.48c-3.43,0-4.89-2.17-4.89-7.26V91.77h10.68V84.69H367.44Z"/><path class="cls-1" d="M400.05,83.76c-12.38,0-21,9.24-21,22.47,0,12.83,8.37,21.8,20.36,21.8h.08c10.13,0,21-7.06,21-22.56,0-6.3-1.95-11.71-5.64-15.66A19.7,19.7,0,0,0,400.05,83.76Zm-.26,7c8,0,11.59,7.76,11.59,15,0,8.87-4.95,15.31-11.76,15.31h-.09C392.83,121,388,114.71,388,106,388,98.4,391.62,90.75,399.8,90.75Z"/><path class="cls-1" d="M447.6,84.17l-.53-.13a8.51,8.51,0,0,0-2.2-.28,12.63,12.63,0,0,0-11.1,7.13l-.26-6.19h-7.94l.05.74c.24,3.5.33,7.44.33,12.75l-.08,28.92h8.85V104.54a22.8,22.8,0,0,1,.24-3.43c1-5.42,4.65-8.92,9.31-8.92a22.59,22.59,0,0,1,2.37.15l.95.1Z"/><path class="cls-1" d="M467.5,83.68c-11.78,0-20,9.42-20,22.9,0,13,8.19,21.37,20.86,21.37a34,34,0,0,0,14-2.69l.53-.24-1.7-6.6-.74.3a27.42,27.42,0,0,1-11.09,2c-3.85,0-12.71-1.27-13.26-12.83l28.57.09.12-.57a19.71,19.71,0,0,0,.27-3.69C485.06,94.46,480.46,83.68,467.5,83.68Zm-.59,6.73a8.73,8.73,0,0,1,6.5,2.48c2.55,2.59,3,6.41,3,8.24H456.27C457.1,96,460.29,90.41,466.91,90.41Z"/><path class="cls-1" d="M158.44,28.63a64.49,64.49,0,0,1,8.49-.57c5.71,0,9.77,1.15,12.46,3.41s4.38,5.5,4.38,10a14,14,0,0,1-4.43,10.76c-2.92,2.59-7.67,4-13.65,4a61.58,61.58,0,0,1-7.26-.33Zm4,24.53a28.66,28.66,0,0,0,4,.16c8.49,0,13.1-4.27,13.1-11.75,0-6.61-4.06-10.68-12.46-10.68a25.22,25.22,0,0,0-4.66.37Z"/><path class="cls-1" d="M198,56.4c-5.94,0-10.59-3.94-10.59-10.23,0-6.66,4.88-10.56,11-10.56,6.35,0,10.64,4.15,10.64,10.19,0,7.39-5.71,10.6-11,10.6Zm.14-2.71c3.83,0,6.71-3.25,6.71-7.76,0-3.37-1.87-7.6-6.62-7.6s-6.76,3.94-6.76,7.72c0,4.35,2.74,7.64,6.62,7.64Z"/><path class="cls-1" d="M215.37,36.07l3,10.07c.59,2.22,1.19,4.31,1.6,6.37h.14c.5-2,1.23-4.15,2-6.33l3.61-10.11H229L232.44,46c.82,2.34,1.46,4.48,2,6.49h.14A55,55,0,0,1,236.23,46l3.15-10h4l-7.12,19.88h-3.65l-3.38-9.49a65.26,65.26,0,0,1-2-6.57h-.09a54.73,54.73,0,0,1-2,6.61l-3.56,9.45h-3.65l-6.67-19.88Z"/><path class="cls-1" d="M247.37,41.45c0-2.1,0-3.74-.18-5.38h3.56l.23,3.25h.09a8.37,8.37,0,0,1,7.3-3.7c3.06,0,7.81,1.64,7.81,8.46V55.95h-4V44.49c0-3.2-1.33-5.91-5.11-5.91a5.73,5.73,0,0,0-5.39,3.7,4.88,4.88,0,0,0-.27,1.68v12h-4Z"/><path class="cls-1" d="M272.7,26.78h4V55.95h-4Z"/><path class="cls-1" d="M292.38,56.4c-5.93,0-10.59-3.94-10.59-10.23,0-6.66,4.88-10.56,11-10.56,6.34,0,10.63,4.15,10.63,10.19,0,7.39-5.71,10.6-11,10.6Zm.13-2.71c3.83,0,6.71-3.25,6.71-7.76,0-3.37-1.87-7.6-6.62-7.6s-6.76,3.94-6.76,7.72c0,4.35,2.74,7.64,6.62,7.64Z"/><path class="cls-1" d="M324,51.18a30,30,0,0,0,.32,4.76h-3.61l-.37-2.5h-.13a8.49,8.49,0,0,1-6.76,3c-4.47,0-6.76-2.83-6.76-5.71,0-4.81,4.75-7.44,13.28-7.39v-.41c0-1.64-.5-4.64-5-4.6a11.52,11.52,0,0,0-5.8,1.48l-.91-2.42a15.55,15.55,0,0,1,7.3-1.73c6.8,0,8.44,4.15,8.44,8.13Zm-3.92-5.38c-4.38-.08-9.36.62-9.36,4.48,0,2.38,1.73,3.45,3.74,3.45a5.57,5.57,0,0,0,5.43-3.33,3.31,3.31,0,0,0,.18-1.15Z"/><path class="cls-1" d="M349.53,26.78v24c0,1.77,0,3.78.18,5.14h-3.61l-.18-3.45h-.09c-1.23,2.22-3.88,3.9-7.49,3.9-5.34,0-9.5-4.07-9.5-10.11,0-6.66,4.57-10.68,9.91-10.68,3.43,0,5.71,1.44,6.67,3h.09V26.78Zm-4,17.38a6,6,0,0,0-.18-1.56,5.81,5.81,0,0,0-5.8-4.15c-4.15,0-6.62,3.29-6.62,7.64,0,4.07,2.24,7.39,6.53,7.39a6,6,0,0,0,5.89-4.31,5.61,5.61,0,0,0,.18-1.56Z"/><path class="cls-1" d="M374.87,56.4c-5.93,0-10.59-3.94-10.59-10.23,0-6.66,4.89-10.56,11-10.56,6.35,0,10.64,4.15,10.64,10.19,0,7.39-5.71,10.6-11,10.6Zm.14-2.71c3.83,0,6.71-3.25,6.71-7.76,0-3.37-1.87-7.6-6.62-7.6s-6.76,3.94-6.76,7.72c0,4.35,2.74,7.64,6.62,7.64Z"/><path class="cls-1" d="M390.94,41.45c0-2.1,0-3.74-.18-5.38h3.56l.23,3.25h.09a8.37,8.37,0,0,1,7.3-3.7c3.06,0,7.81,1.64,7.81,8.46V55.95h-4V44.49c0-3.2-1.32-5.91-5.11-5.91a5.74,5.74,0,0,0-5.39,3.7A4.91,4.91,0,0,0,395,44v12h-4Z"/><path class="cls-1" d="M430.79,31.3v4.76h5.75v2.75h-5.75V49.54c0,2.46.78,3.86,3,3.86a8.31,8.31,0,0,0,2.33-.25l.18,2.75a12.07,12.07,0,0,1-3.56.49,6.08,6.08,0,0,1-4.34-1.52c-1.1-1.11-1.55-2.88-1.55-5.22V38.82h-3.42V36.07h3.42V32.41Z"/><path class="cls-1" d="M441.06,26.78h4V39.19h.09a6.82,6.82,0,0,1,2.88-2.55,8.48,8.48,0,0,1,4.11-1c3,0,7.71,1.64,7.71,8.5V55.95h-4V44.53c0-3.25-1.32-5.92-5.11-5.92a5.77,5.77,0,0,0-5.39,3.62,4,4,0,0,0-.28,1.73v12h-4Z"/><path class="cls-1" d="M468.68,46.62c.09,4.89,3.52,6.9,7.53,6.9a16.75,16.75,0,0,0,6.12-1l.73,2.55a19.75,19.75,0,0,1-7.4,1.27c-6.76,0-10.87-4.07-10.87-10s4-10.76,10.41-10.76c7.21,0,9.08,5.71,9.08,9.37a8.37,8.37,0,0,1-.13,1.72ZM480.42,44c0-2.26-1.05-5.87-5.53-5.87-4.11,0-5.84,3.37-6.16,5.88Z"/></svg>