<svg id="Layer_1" data-name="Layer 1" xmlns="http://www.w3.org/2000/svg" viewBox="0 0 422.98 335.98"><defs><style>.cls-1{fill:#414042;}.cls-2{fill:#faa21b;}</style></defs><title>logo</title><path class="cls-1" d="M71.72,128.09h70.2a6,6,0,0,1,6,6V147a6,6,0,0,1-6,6H100.21a6,6,0,0,0-6,6v5.45a6,6,0,0,0,6,6h36.57a6,6,0,0,1,6,6v11.61a6,6,0,0,1-6,6H100.21a6,6,0,0,0-6,6v24.68a6,6,0,0,1-6,6H71.72a6,6,0,0,1-6-6V134.1A6,6,0,0,1,71.72,128.09Z"/><rect class="cls-1" x="156.82" y="123.68" width="29.07" height="20.56" rx="10.28" ry="10.28"/><rect class="cls-1" x="157.41" y="151.43" width="27.9" height="79.44" rx="7.23" ry="7.23"/><path class="cls-1" d="M217.19,188.29l-19.94-29.85a4.5,4.5,0,0,1,3.74-7h19.13a4.5,4.5,0,0,1,3.86,2.18l6.58,10.93a4.5,4.5,0,0,0,7.72,0l6.58-10.93a4.5,4.5,0,0,1,3.86-2.18h18.55a4.5,4.5,0,0,1,3.75,7l-19.81,29.71a4.5,4.5,0,0,0,0,5l20.42,30.74a4.5,4.5,0,0,1-3.75,7h-19a4.5,4.5,0,0,1-3.85-2.17l-7.19-11.9a4.5,4.5,0,0,0-7.7,0l-7.3,11.94a4.5,4.5,0,0,1-3.84,2.15H200.55a4.5,4.5,0,0,1-3.75-7l20.39-30.58A4.5,4.5,0,0,0,217.19,188.29Z"/><path class="cls-2" d="M287.59,128.09h18.35a5.18,5.18,0,0,1,5,3.92c1.8,7.14,5.21,23.77,5.21,47.47S312.78,219.81,311,227a5.18,5.18,0,0,1-5,3.92H287.59a5.19,5.19,0,0,1-5.11-6.15c1.83-9.74,5.08-29.25,5.08-45.24s-3.25-35.5-5.08-45.24A5.19,5.19,0,0,1,287.59,128.09Z"/><path class="cls-2" d="M345,153H326.88a6.35,6.35,0,0,1-6.35-6.35V134.44a6.35,6.35,0,0,1,6.35-6.35h77.44a6.35,6.35,0,0,1,6.35,6.35v12.25a6.35,6.35,0,0,1-6.35,6.35H386.2a6.35,6.35,0,0,0-6.35,6.35v65.11a6.35,6.35,0,0,1-6.35,6.35H357.72a6.35,6.35,0,0,1-6.35-6.35V159.4A6.35,6.35,0,0,0,345,153Z"/><path class="cls-1" d="M253,270.8v-7.87h8v7.87Z"/><path class="cls-1" d="M278.85,271.39a13.46,13.46,0,0,1-13.72-13.62v-.1A13.53,13.53,0,0,1,278.95,244c5,0,8.07,1.67,10.53,4.43l-4.58,4.92c-1.67-1.77-3.34-2.9-6-2.9-3.74,0-6.39,3.29-6.39,7.18v.1c0,4,2.61,7.28,6.69,7.28,2.51,0,4.23-1.08,6-2.8l4.38,4.43A13.28,13.28,0,0,1,278.85,271.39Z"/><path class="cls-1" d="M306.69,271.39c-8.16,0-14.21-6-14.21-13.62v-.1c0-7.57,6.1-13.72,14.31-13.72S321,250,321,257.57v.1C321,265.24,314.9,271.39,306.69,271.39Zm6.93-13.72a7,7,0,0,0-6.93-7.28c-4.28,0-6.84,3.29-6.84,7.18v.1a7,7,0,0,0,6.93,7.28c4.28,0,6.84-3.29,6.84-7.18Z"/><path class="cls-1" d="M325.13,270.8v-7.87h8v7.87Z"/><path class="cls-1" d="M356.46,270.8,349.58,260,347,262.79v8H339.5V234.9H347V254l8.75-9.59h9l-10,10.38,10.38,16Z"/><path class="cls-1" d="M391.88,260.23H373.53a6.12,6.12,0,0,0,6.45,5.17,8.64,8.64,0,0,0,6.39-2.71l4.28,3.79a13.18,13.18,0,0,1-10.77,4.92c-7.92,0-13.77-5.56-13.77-13.62v-.1c0-7.52,5.36-13.72,13-13.72,8.8,0,12.84,6.83,12.84,14.31v.1C392,259.1,391.92,259.54,391.88,260.23Zm-12.74-10.28c-3.1,0-5.12,2.21-5.71,5.61H384.7C384.25,252.21,382.29,249.95,379.14,249.95Z"/><path class="cls-1" d="M253.76,13.66a12.25,12.25,0,0,0-17,3.55L225.28,34.8,211.67,55.63l-6.57,10.05a12.27,12.27,0,0,0,10.25,19q.5,0,1,0a12.24,12.24,0,0,0,9.28-5.51l7.81-11.94,13.42-20.52,10.46-16A12.26,12.26,0,0,0,253.76,13.66Z"/><path class="cls-2" d="M261.25,57.44l-13.54,20.7a127.77,127.77,0,0,1,27.51,34.7h27.23A152.21,152.21,0,0,0,261.25,57.44Z"/><path class="cls-2" d="M163.64,299.8A126.82,126.82,0,1,1,194,49.85l14.09-21.56a150.83,150.83,0,0,0-44.42-6.66C80.19,21.63,12.3,89.52,12.3,173S80.19,324.33,163.64,324.33A150.24,150.24,0,0,0,256.8,292l-13.37-20.64A126.08,126.08,0,0,1,163.64,299.8Z"/></svg>