<svg id="Layer_1" data-name="Layer 1" xmlns="http://www.w3.org/2000/svg" xmlns:xlink="http://www.w3.org/1999/xlink" viewBox="0 0 521.71 170.66"><defs><style>.cls-1{fill:none;}.cls-2{fill:#231f20;}.cls-3{clip-path:url(#clip-path);}.cls-4{fill:url(#linear-gradient);}.cls-5{fill:url(#linear-gradient-2);}.cls-6{fill:url(#linear-gradient-3);}.cls-7{fill:url(#linear-gradient-4);}.cls-8{fill:#f9f9f9;}.cls-9{fill:#f9f9fa;}</style><clipPath id="clip-path"><path class="cls-1" d="M113.06,75.12,89.54,61.54,44.16,35.34c-2.52-1.45-5-.57-5,2.47V144.55c0,2.28,1.79,3.26,4,2l46.42-26.8,23.52-13.58,22.61-13.05c2.65-1.53,2.4-3.63.16-4.84S113.06,75.12,113.06,75.12Z"/></clipPath><linearGradient id="linear-gradient" x1="68.27" y1="32.86" x2="68.27" y2="148.42" gradientUnits="userSpaceOnUse"><stop offset="0" stop-color="#257cb0"/><stop offset="0.21" stop-color="#3c8fb3"/><stop offset="0.74" stop-color="#73bdba"/><stop offset="1" stop-color="#89cfbd"/></linearGradient><linearGradient id="linear-gradient-2" x1="39.13" y1="61.54" x2="113.06" y2="61.54" gradientUnits="userSpaceOnUse"><stop offset="0" stop-color="#52c1ad"/><stop offset="1" stop-color="#dee89a"/></linearGradient><linearGradient id="linear-gradient-3" x1="76.1" y1="90.64" x2="76.1" y2="148.84" gradientUnits="userSpaceOnUse"><stop offset="0" stop-color="#ec413d"/><stop offset="0.19" stop-color="#d74352"/><stop offset="0.74" stop-color="#a04888"/><stop offset="1" stop-color="#8a4a9d"/></linearGradient><linearGradient id="linear-gradient-4" x1="118.68" y1="75.12" x2="118.68" y2="106.16" gradientUnits="userSpaceOnUse"><stop offset="0" stop-color="#f58879"/><stop offset="0.62" stop-color="#fbb276"/><stop offset="1" stop-color="#fec874"/></linearGradient></defs><title>playstore</title><path class="cls-2" d="M521.71,147.59a23.06,23.06,0,0,1-23.06,23.06H23.06A23.07,23.07,0,0,1,0,147.59V23.06A23.06,23.06,0,0,1,23.06,0H498.65a23.06,23.06,0,0,1,23.06,23.06Z"/><g id="PLAY"><g class="cls-3"><polygon class="cls-4" points="39.13 32.85 39.13 90.64 39.13 148.42 97.41 90.64 39.13 32.85"/><polygon class="cls-5" points="113.06 75.12 89.54 61.54 39.13 32.44 39.13 32.85 97.41 90.64 113.06 75.12"/><polygon class="cls-6" points="39.13 148.42 39.13 148.84 89.54 119.74 113.06 106.16 97.41 90.64 39.13 148.42"/><polygon class="cls-7" points="113.06 75.12 97.41 90.64 113.06 106.16 139.94 90.64 113.06 75.12"/></g></g><path class="cls-8" d="M406,113.23a14.54,14.54,0,0,1-6-1.21,11.29,11.29,0,0,1-4.56-3.73h-.37a45.13,45.13,0,0,1,.37,5.58V127.7h-5.09V79h4.14l.7,4.6h.25a11.83,11.83,0,0,1,4.57-4,13.89,13.89,0,0,1,6-1.23q6.69,0,10.32,4.57T420,95.78q0,8.28-3.69,12.87A12.45,12.45,0,0,1,406,113.23Zm-.74-30.51q-5.15,0-7.45,2.85t-2.36,9.08v1.13q0,7.09,2.36,10.14T405.4,109a7.88,7.88,0,0,0,6.83-3.53q2.47-3.52,2.47-9.72t-2.47-9.64A8.12,8.12,0,0,0,405.28,82.72Z"/><path class="cls-8" d="M431.76,112.62h-5.09V64.9h5.09Z"/><path class="cls-8" d="M461,112.62l-1-4.78h-.25a14.1,14.1,0,0,1-5,4.28,15.25,15.25,0,0,1-6.24,1.12q-5,0-7.84-2.58t-2.84-7.33q0-10.18,16.28-10.67l5.71-.18V90.39q0-4-1.7-5.84t-5.44-1.89a22.17,22.17,0,0,0-9.51,2.58l-1.56-3.89a23.93,23.93,0,0,1,5.44-2.12,23.57,23.57,0,0,1,5.93-.77q6,0,8.91,2.67t2.9,8.56v22.94ZM449.53,109a10.34,10.34,0,0,0,7.47-2.61,9.65,9.65,0,0,0,2.71-7.3v-3l-5.09.21q-6.07.22-8.75,1.89a5.69,5.69,0,0,0-2.68,5.2,5.24,5.24,0,0,0,1.67,4.2A6.93,6.93,0,0,0,449.53,109Z"/><path class="cls-8" d="M467.75,79h5.46l7.36,19.17a73.23,73.23,0,0,1,3,9.48h.25q.4-1.57,1.67-5.35T493.82,79h5.46l-14.45,38.27q-2.15,5.67-5,8.05a10.66,10.66,0,0,1-7,2.37,20.55,20.55,0,0,1-4.6-.52v-4.08a17.77,17.77,0,0,0,3.77.37q5.24,0,7.48-5.89l1.87-4.78Z"/><path class="cls-8" d="M311.72,82.13a11.85,11.85,0,0,1,5,9.49c0,5.2-3,7.66-5.91,10-.91.91-2,1.9-2,3.45a3.86,3.86,0,0,0,1.83,3l2.53,2c3.09,2.6,5.9,5,5.9,9.85,0,6.61-6.4,13.28-18.49,13.28-10.2,0-15.11-4.85-15.11-10.05,0-2.53,1.26-6.11,5.41-8.58,4.35-2.67,10.26-3,13.43-3.24-1-1.26-2.11-2.6-2.11-4.78a6.35,6.35,0,0,1,.7-2.75c-.78.07-1.55.14-2.25.14-7.45,0-11.67-5.55-11.67-11a12.65,12.65,0,0,1,4.5-9.42c4-3.3,8.79-3.87,12.59-3.87h14.48l-4.5,2.53Zm-5,31.21a10.87,10.87,0,0,0-1.61-.07,28.1,28.1,0,0,0-7.38,1.13c-1.55.56-6,2.25-6,7.24s4.85,8.58,12.38,8.58c6.74,0,10.33-3.24,10.33-7.6C314.39,119,312.07,117.14,306.73,113.35Zm2-13.36a7.11,7.11,0,0,0,1.75-5.13c0-5.06-3-12.93-8.85-12.93a6.56,6.56,0,0,0-4.92,2.32,8.12,8.12,0,0,0-1.55,5.2c0,4.71,2.74,12.51,8.79,12.51A7.2,7.2,0,0,0,308.77,100Z"/><path class="cls-8" d="M267.46,112.22c-11.16,0-17.12-8.7-17.12-16.57,0-9.19,7.51-17.05,18.18-17.05a16.41,16.41,0,0,1,16.77,16.56C285.29,103.44,278.91,112.22,267.46,112.22Zm8.77-5.68a12.7,12.7,0,0,0,2.11-7.79c0-6.18-2.95-18-11.65-18a9.78,9.78,0,0,0-6.32,2.39c-2.74,2.45-3.23,5.54-3.23,8.56,0,6.94,3.44,18.38,11.93,18.38A9,9,0,0,0,276.24,106.54Z"/><path class="cls-8" d="M229.42,112.22c-11.16,0-17.13-8.7-17.13-16.57,0-9.19,7.51-17.05,18.18-17.05a16.41,16.41,0,0,1,16.77,16.56C247.25,103.44,240.86,112.22,229.42,112.22Zm8.77-5.68a12.71,12.71,0,0,0,2.11-7.79c0-6.18-2.95-18-11.65-18a9.78,9.78,0,0,0-6.32,2.39c-2.74,2.45-3.23,5.54-3.23,8.56,0,6.94,3.44,18.38,11.93,18.38A9,9,0,0,0,238.2,106.54Z"/><path class="cls-8" d="M206.94,111.12l-10.09,2.33a74.78,74.78,0,0,1-11.64,1.2c-19.48,0-26.88-14.32-26.88-25.54,0-13.69,10.51-26.39,28.51-26.39a40.64,40.64,0,0,1,10.79,1.48,27.53,27.53,0,0,1,9.31,4.37l-5.86,5.57-2.47.56,1.76-2.82c-2.4-2.33-6.78-6.63-15.1-6.63-11.15,0-19.55,8.47-19.55,20.82,0,13.26,9.6,25.75,25,25.75a21,21,0,0,0,9-1.77V98.7L189,99.26l5.64-3h15L207.78,98a1.65,1.65,0,0,0-.71,1.13c-.07.64-.14,2.68-.14,3.39Z"/><path class="cls-8" d="M334,109.09c-2.33-.21-2.82-.63-2.82-3.39V65.76c0-.15,0-.31,0-.46.28-2.47,1-2.89,3.18-4.16H324.33L319,63.68h5.39v43.57c0,1.41-.28,1.62-1.9,3.74H335l2.61-1.55C336.43,109.3,335.22,109.23,334,109.09Z"/><path class="cls-8" d="M362.74,109.74c-.77.42-1.54.91-2.31,1.26a16.33,16.33,0,0,1-6.8,1.33,15,15,0,0,1-9.32-2.73c-5-3.51-7.14-9.53-7.14-14.79,0-10.86,8.83-16.19,16-16.19a13.62,13.62,0,0,1,7.22,2,11.6,11.6,0,0,1,4.9,6.93l-16.46,6.66-5.4.42c1.75,8.9,7.78,14.08,14.44,14.08a18.11,18.11,0,0,0,8.55-2.45Zm-6.58-20.89c1.33-.49,2-.91,2-1.89,0-2.8-3.15-6-6.94-6-2.81,0-8.06,2.17-8.06,9.74,0,1.19.14,2.45.21,3.72Z"/><path class="cls-8" d="M369.5,79.1v4.62h-.56V79.1h-1.53v-.48H371v.48Z"/><path class="cls-8" d="M375.8,83.73V79.06h0l-1.42,4.67h-.44l-1.44-4.67h0v4.67h-.51v-5.1h.87l1.3,4.12h0l1.28-4.12h.89v5.1Z"/><path class="cls-9" d="M172.33,49h-3.51a23.21,23.21,0,0,0-1-4.1h-5.06a21.14,21.14,0,0,0-1,4.1h-3.3q0-.43,2.56-7a55,55,0,0,0,2.56-7.25h4.14A60.41,60.41,0,0,0,170,41.86,62.68,62.68,0,0,1,172.33,49Zm-5.06-6.19a61.77,61.77,0,0,1-1.87-6.11h-.18q0,.43-1.94,6.11Z"/><path class="cls-9" d="M186.46,49h-2.71q0-.45-3-4.74-3.16-4.53-3.59-6.19H177a38.65,38.65,0,0,1,.27,4.34q0,2.71.15,6.6h-2.7q.16-3.4.16-7.46t-.16-6.8H178q0,.58,2.71,4.63A27.28,27.28,0,0,1,184,45.18h.16a41.39,41.39,0,0,1-.26-4.38q0-3-.15-6.09h2.74q-.15,2.72-.15,6.8T186.46,49Z"/><path class="cls-9" d="M202.34,41.35a8.08,8.08,0,0,1-2,5.43,7,7,0,0,1-5.59,2.32q-1.62,0-4.47-.13.14-3.31.14-7.46,0-4-.14-6.8h1.92l1.4,0,1.22,0q4,0,5.74,2A6.82,6.82,0,0,1,202.34,41.35Zm-3,.47a5.28,5.28,0,0,0-1.23-3.55,4.65,4.65,0,0,0-3.75-1.44,11.51,11.51,0,0,0-1.29.1q.11,2.19.11,4.58,0,2.62.11,5.19a7.27,7.27,0,0,0,1.42.14,4.14,4.14,0,0,0,3.49-1.46A5.64,5.64,0,0,0,199.35,41.82Z"/><path class="cls-9" d="M217,49h-3.24a21.55,21.55,0,0,0-2-4.79,2.56,2.56,0,0,0-2.19-.91h-1.22q0,2.82.1,5.69h-3q.14-3.31.14-7.46,0-4-.14-6.8h1.9l1.38,0q1,0,1.93,0,5,0,5,3.44a3.86,3.86,0,0,1-2.87,3.8V42a3.42,3.42,0,0,1,1.94,1.73A38.11,38.11,0,0,1,217,49Zm-4.11-10.08q0-2.18-2.8-2.18a9.58,9.58,0,0,0-1.82.15q.12,1.7.12,4.43l1,0Q212.88,41.32,212.88,38.89Z"/><path class="cls-9" d="M232.69,41.58a7.87,7.87,0,0,1-2.06,5.58,6.68,6.68,0,0,1-5.1,2.21,6.44,6.44,0,0,1-4.84-2,7.16,7.16,0,0,1-2-5.17,7.87,7.87,0,0,1,2.06-5.58,6.68,6.68,0,0,1,5.09-2.21,6.45,6.45,0,0,1,4.84,2A7.16,7.16,0,0,1,232.69,41.58Zm-3,.32a5.66,5.66,0,0,0-1.17-3.71,3.61,3.61,0,0,0-2.89-1.42,3.34,3.34,0,0,0-2.72,1.44,5.73,5.73,0,0,0-1.12,3.63,5.64,5.64,0,0,0,1.18,3.71A3.61,3.61,0,0,0,225.83,47a3.34,3.34,0,0,0,2.72-1.44A5.73,5.73,0,0,0,229.67,41.9Z"/><path class="cls-9" d="M238.89,49h-3.1q.14-3.4.14-7.46t-.14-6.8h3.1q-.14,2.76-.14,6.8T238.89,49Z"/><path class="cls-9" d="M254.77,41.35a8.08,8.08,0,0,1-2,5.43,7,7,0,0,1-5.59,2.32q-1.62,0-4.47-.13.14-3.31.14-7.46,0-4-.14-6.8h1.92l1.4,0,1.22,0q4,0,5.74,2A6.82,6.82,0,0,1,254.77,41.35Zm-3,.47a5.28,5.28,0,0,0-1.23-3.55,4.65,4.65,0,0,0-3.75-1.44,11.52,11.52,0,0,0-1.29.1q.11,2.19.11,4.58,0,2.62.11,5.19a7.27,7.27,0,0,0,1.42.14,4.14,4.14,0,0,0,3.49-1.46A5.64,5.64,0,0,0,251.78,41.82Z"/><path class="cls-9" d="M275.84,49h-3.51a23.16,23.16,0,0,0-1-4.1h-5.06a21.18,21.18,0,0,0-1,4.1h-3.3q0-.43,2.56-7a55,55,0,0,0,2.56-7.25h4.14a60.48,60.48,0,0,0,2.32,7.15A62.76,62.76,0,0,1,275.84,49Zm-5.06-6.19a62,62,0,0,1-1.87-6.11h-.18q0,.43-1.94,6.11Z"/><path class="cls-9" d="M288.62,38.45a4.27,4.27,0,0,1-1.95,3.87,8.65,8.65,0,0,1-4.77,1.25c-.34,0-.59,0-.73,0q0,2.06.12,5.43h-3.08q.14-3.17.14-7.46,0-3.94-.14-6.8h1.91l1.56,0,2,0a6.27,6.27,0,0,1,3.52.94A3.19,3.19,0,0,1,288.62,38.45Zm-2.83.6q0-2.34-3.11-2.34a8.82,8.82,0,0,0-1.64.16q.12,2.07.12,4.69l.64,0Q285.79,41.58,285.79,39Z"/><path class="cls-9" d="M301.76,38.45a4.27,4.27,0,0,1-1.94,3.87A8.65,8.65,0,0,1,295,43.56c-.34,0-.59,0-.73,0q0,2.06.12,5.43h-3.08q.14-3.17.14-7.46,0-3.94-.14-6.8h1.91l1.56,0,2,0a6.27,6.27,0,0,1,3.52.94A3.19,3.19,0,0,1,301.76,38.45Zm-2.83.6q0-2.34-3.11-2.34a8.82,8.82,0,0,0-1.64.16q.12,2.07.12,4.69l.64,0Q298.93,41.58,298.93,39Z"/><path class="cls-9" d="M323.25,41.58a7.87,7.87,0,0,1-2.06,5.58,6.68,6.68,0,0,1-5.09,2.21,6.44,6.44,0,0,1-4.84-2,7.16,7.16,0,0,1-2-5.17,7.87,7.87,0,0,1,2.06-5.58,6.68,6.68,0,0,1,5.09-2.21,6.45,6.45,0,0,1,4.84,2A7.16,7.16,0,0,1,323.25,41.58Zm-3,.32A5.65,5.65,0,0,0,319,38.18a3.61,3.61,0,0,0-2.89-1.42,3.34,3.34,0,0,0-2.72,1.44,5.73,5.73,0,0,0-1.12,3.63,5.64,5.64,0,0,0,1.18,3.71A3.61,3.61,0,0,0,316.39,47a3.34,3.34,0,0,0,2.72-1.44A5.73,5.73,0,0,0,320.22,41.9Z"/><path class="cls-9" d="M338.1,49h-2.71q0-.45-3-4.74-3.16-4.53-3.59-6.19h-.18a38.67,38.67,0,0,1,.27,4.34q0,2.71.15,6.6h-2.7q.16-3.4.16-7.46t-.16-6.8h3.25q0,.58,2.71,4.63a27.25,27.25,0,0,1,3.31,5.84h.16a41.36,41.36,0,0,1-.26-4.38q0-3-.15-6.09h2.74q-.15,2.72-.15,6.8T338.1,49Z"/></svg>